<mxfile host="65bd71144e">
    <diagram id="nLyE6nvUJ9_JDb8Aycyh" name="Page-1">
        <mxGraphModel dx="1204" dy="1959" grid="1" gridSize="10" guides="1" tooltips="1" connect="1" arrows="1" fold="1" page="1" pageScale="1" pageWidth="827" pageHeight="1169" math="0" shadow="0">
            <root>
                <mxCell id="0"/>
                <mxCell id="1" parent="0"/>
                <mxCell id="2" value="&lt;font style=&quot;font-size: 18px&quot;&gt;[16,21,11,8,12,22]&amp;nbsp;&lt;/font&gt;" style="rounded=0;whiteSpace=wrap;html=1;fillColor=#60a917;fontColor=#ffffff;strokeColor=#2D7600;" vertex="1" parent="1">
                    <mxGeometry x="295" y="-170" width="420" height="40" as="geometry"/>
                </mxCell>
                <mxCell id="5" value="&lt;span&gt;2- Big O Gösterimini yapınız.&lt;br&gt;&lt;br&gt;O(n*logn)&amp;nbsp;&lt;br&gt;&lt;/span&gt;" style="rounded=0;whiteSpace=wrap;html=1;fontSize=18;fillColor=#60a917;fontColor=#ffffff;strokeColor=#2D7600;" vertex="1" parent="1">
                    <mxGeometry x="40" y="1000" width="930" height="110" as="geometry"/>
                </mxCell>
                <mxCell id="12" value="" style="rounded=0;whiteSpace=wrap;html=1;fontSize=18;fontColor=#000000;strokeColor=#2D7600;fillColor=#60a917;" vertex="1" parent="1">
                    <mxGeometry x="40" y="90" width="930" height="850" as="geometry"/>
                </mxCell>
                <mxCell id="57" value="" style="edgeStyle=none;html=1;fontSize=18;fontColor=#FFFFFF;" edge="1" parent="1">
                    <mxGeometry relative="1" as="geometry">
                        <mxPoint x="570" y="280" as="sourcePoint"/>
                        <mxPoint x="570" y="280" as="targetPoint"/>
                    </mxGeometry>
                </mxCell>
                <mxCell id="58" value="" style="shape=table;html=1;whiteSpace=wrap;startSize=0;container=1;collapsible=0;childLayout=tableLayout;fontSize=18;fontColor=#333333;strokeColor=#666666;fillColor=#f5f5f5;" vertex="1" parent="1">
                    <mxGeometry x="340" y="190" width="180" height="40" as="geometry"/>
                </mxCell>
                <mxCell id="67" value="" style="shape=partialRectangle;html=1;whiteSpace=wrap;collapsible=0;dropTarget=0;pointerEvents=0;fillColor=none;top=0;left=0;bottom=0;right=0;points=[[0,0.5],[1,0.5]];portConstraint=eastwest;fontSize=18;fontColor=#FFFFFF;strokeColor=#2D7600;" vertex="1" parent="58">
                    <mxGeometry width="180" height="40" as="geometry"/>
                </mxCell>
                <mxCell id="68" value="&lt;font color=&quot;#000000&quot;&gt;16&lt;/font&gt;" style="shape=partialRectangle;html=1;whiteSpace=wrap;connectable=0;fillColor=none;top=0;left=0;bottom=0;right=0;overflow=hidden;pointerEvents=1;fontSize=18;fontColor=#FFFFFF;strokeColor=#2D7600;" vertex="1" parent="67">
                    <mxGeometry width="60" height="40" as="geometry">
                        <mxRectangle width="60" height="40" as="alternateBounds"/>
                    </mxGeometry>
                </mxCell>
                <mxCell id="69" value="&lt;font color=&quot;#000000&quot;&gt;21&lt;/font&gt;" style="shape=partialRectangle;html=1;whiteSpace=wrap;connectable=0;fillColor=none;top=0;left=0;bottom=0;right=0;overflow=hidden;pointerEvents=1;fontSize=18;fontColor=#FFFFFF;strokeColor=#2D7600;" vertex="1" parent="67">
                    <mxGeometry x="60" width="60" height="40" as="geometry">
                        <mxRectangle width="60" height="40" as="alternateBounds"/>
                    </mxGeometry>
                </mxCell>
                <mxCell id="70" value="&lt;font color=&quot;#000000&quot;&gt;11&lt;/font&gt;" style="shape=partialRectangle;html=1;whiteSpace=wrap;connectable=0;fillColor=none;top=0;left=0;bottom=0;right=0;overflow=hidden;pointerEvents=1;fontSize=18;fontColor=#FFFFFF;strokeColor=#2D7600;" vertex="1" parent="67">
                    <mxGeometry x="120" width="60" height="40" as="geometry">
                        <mxRectangle width="60" height="40" as="alternateBounds"/>
                    </mxGeometry>
                </mxCell>
                <mxCell id="71" value="" style="shape=table;html=1;whiteSpace=wrap;startSize=0;container=1;collapsible=0;childLayout=tableLayout;fontSize=18;fontColor=#333333;strokeColor=#666666;fillColor=#f5f5f5;" vertex="1" parent="1">
                    <mxGeometry x="520" y="190" width="180" height="40" as="geometry"/>
                </mxCell>
                <mxCell id="72" value="" style="shape=partialRectangle;html=1;whiteSpace=wrap;collapsible=0;dropTarget=0;pointerEvents=0;fillColor=none;top=0;left=0;bottom=0;right=0;points=[[0,0.5],[1,0.5]];portConstraint=eastwest;fontSize=18;fontColor=#FFFFFF;strokeColor=#2D7600;" vertex="1" parent="71">
                    <mxGeometry width="180" height="40" as="geometry"/>
                </mxCell>
                <mxCell id="73" value="&lt;font color=&quot;#000000&quot;&gt;8&lt;/font&gt;" style="shape=partialRectangle;html=1;whiteSpace=wrap;connectable=0;fillColor=none;top=0;left=0;bottom=0;right=0;overflow=hidden;pointerEvents=1;fontSize=18;fontColor=#FFFFFF;strokeColor=#2D7600;" vertex="1" parent="72">
                    <mxGeometry width="60" height="40" as="geometry">
                        <mxRectangle width="60" height="40" as="alternateBounds"/>
                    </mxGeometry>
                </mxCell>
                <mxCell id="74" value="&lt;font color=&quot;#000000&quot;&gt;12&lt;/font&gt;" style="shape=partialRectangle;html=1;whiteSpace=wrap;connectable=0;fillColor=none;top=0;left=0;bottom=0;right=0;overflow=hidden;pointerEvents=1;fontSize=18;fontColor=#FFFFFF;strokeColor=#2D7600;" vertex="1" parent="72">
                    <mxGeometry x="60" width="60" height="40" as="geometry">
                        <mxRectangle width="60" height="40" as="alternateBounds"/>
                    </mxGeometry>
                </mxCell>
                <mxCell id="75" value="&lt;font color=&quot;#000000&quot;&gt;22&lt;/font&gt;" style="shape=partialRectangle;html=1;whiteSpace=wrap;connectable=0;fillColor=none;top=0;left=0;bottom=0;right=0;overflow=hidden;pointerEvents=1;fontSize=18;fontColor=#FFFFFF;strokeColor=#2D7600;" vertex="1" parent="72">
                    <mxGeometry x="120" width="60" height="40" as="geometry">
                        <mxRectangle width="60" height="40" as="alternateBounds"/>
                    </mxGeometry>
                </mxCell>
                <mxCell id="84" value="" style="shape=table;html=1;whiteSpace=wrap;startSize=0;container=1;collapsible=0;childLayout=tableLayout;fontSize=18;fontColor=#333333;strokeColor=#666666;fillColor=#f5f5f5;" vertex="1" parent="1">
                    <mxGeometry x="234" y="290" width="180" height="40" as="geometry"/>
                </mxCell>
                <mxCell id="85" value="" style="shape=partialRectangle;html=1;whiteSpace=wrap;collapsible=0;dropTarget=0;pointerEvents=0;fillColor=none;top=0;left=0;bottom=0;right=0;points=[[0,0.5],[1,0.5]];portConstraint=eastwest;fontSize=18;fontColor=#FFFFFF;strokeColor=#2D7600;" vertex="1" parent="84">
                    <mxGeometry width="180" height="40" as="geometry"/>
                </mxCell>
                <mxCell id="86" value="&lt;font color=&quot;#000000&quot;&gt;16&lt;/font&gt;" style="shape=partialRectangle;html=1;whiteSpace=wrap;connectable=0;fillColor=none;top=0;left=0;bottom=0;right=0;overflow=hidden;pointerEvents=1;fontSize=18;fontColor=#FFFFFF;strokeColor=#2D7600;" vertex="1" parent="85">
                    <mxGeometry width="60" height="40" as="geometry">
                        <mxRectangle width="60" height="40" as="alternateBounds"/>
                    </mxGeometry>
                </mxCell>
                <mxCell id="87" value="&lt;font color=&quot;#000000&quot;&gt;21&lt;/font&gt;" style="shape=partialRectangle;html=1;whiteSpace=wrap;connectable=0;fillColor=none;top=0;left=0;bottom=0;right=0;overflow=hidden;pointerEvents=1;fontSize=18;fontColor=#FFFFFF;strokeColor=#2D7600;" vertex="1" parent="85">
                    <mxGeometry x="60" width="60" height="40" as="geometry">
                        <mxRectangle width="60" height="40" as="alternateBounds"/>
                    </mxGeometry>
                </mxCell>
                <mxCell id="88" value="&lt;font color=&quot;#000000&quot;&gt;11&lt;/font&gt;" style="shape=partialRectangle;html=1;whiteSpace=wrap;connectable=0;fillColor=none;top=0;left=0;bottom=0;right=0;overflow=hidden;pointerEvents=1;fontSize=18;fontColor=#FFFFFF;strokeColor=#2D7600;" vertex="1" parent="85">
                    <mxGeometry x="120" width="60" height="40" as="geometry">
                        <mxRectangle width="60" height="40" as="alternateBounds"/>
                    </mxGeometry>
                </mxCell>
                <mxCell id="89" value="" style="shape=table;html=1;whiteSpace=wrap;startSize=0;container=1;collapsible=0;childLayout=tableLayout;fontSize=18;fontColor=#333333;strokeColor=#666666;fillColor=#f5f5f5;" vertex="1" parent="1">
                    <mxGeometry x="620" y="290" width="180" height="40" as="geometry"/>
                </mxCell>
                <mxCell id="90" value="" style="shape=partialRectangle;html=1;whiteSpace=wrap;collapsible=0;dropTarget=0;pointerEvents=0;fillColor=none;top=0;left=0;bottom=0;right=0;points=[[0,0.5],[1,0.5]];portConstraint=eastwest;fontSize=18;fontColor=#FFFFFF;strokeColor=#2D7600;" vertex="1" parent="89">
                    <mxGeometry width="180" height="40" as="geometry"/>
                </mxCell>
                <mxCell id="91" value="&lt;font color=&quot;#000000&quot;&gt;8&lt;/font&gt;" style="shape=partialRectangle;html=1;whiteSpace=wrap;connectable=0;fillColor=none;top=0;left=0;bottom=0;right=0;overflow=hidden;pointerEvents=1;fontSize=18;fontColor=#FFFFFF;strokeColor=#2D7600;" vertex="1" parent="90">
                    <mxGeometry width="60" height="40" as="geometry">
                        <mxRectangle width="60" height="40" as="alternateBounds"/>
                    </mxGeometry>
                </mxCell>
                <mxCell id="92" value="&lt;font color=&quot;#000000&quot;&gt;12&lt;/font&gt;" style="shape=partialRectangle;html=1;whiteSpace=wrap;connectable=0;fillColor=none;top=0;left=0;bottom=0;right=0;overflow=hidden;pointerEvents=1;fontSize=18;fontColor=#FFFFFF;strokeColor=#2D7600;" vertex="1" parent="90">
                    <mxGeometry x="60" width="60" height="40" as="geometry">
                        <mxRectangle width="60" height="40" as="alternateBounds"/>
                    </mxGeometry>
                </mxCell>
                <mxCell id="93" value="&lt;font color=&quot;#000000&quot;&gt;22&lt;/font&gt;" style="shape=partialRectangle;html=1;whiteSpace=wrap;connectable=0;fillColor=none;top=0;left=0;bottom=0;right=0;overflow=hidden;pointerEvents=1;fontSize=18;fontColor=#FFFFFF;strokeColor=#2D7600;" vertex="1" parent="90">
                    <mxGeometry x="120" width="60" height="40" as="geometry">
                        <mxRectangle width="60" height="40" as="alternateBounds"/>
                    </mxGeometry>
                </mxCell>
                <mxCell id="118" value="16" style="shape=ext;double=1;rounded=0;whiteSpace=wrap;html=1;fontSize=18;fontColor=#000000;strokeColor=#666666;direction=west;fillColor=#f5f5f5;" vertex="1" parent="1">
                    <mxGeometry x="178" y="380" width="56" height="40" as="geometry"/>
                </mxCell>
                <mxCell id="119" value="21" style="shape=ext;double=1;rounded=0;whiteSpace=wrap;html=1;fontSize=18;fontColor=#000000;strokeColor=#666666;direction=west;fillColor=#f5f5f5;" vertex="1" parent="1">
                    <mxGeometry x="234" y="380" width="56" height="40" as="geometry"/>
                </mxCell>
                <mxCell id="120" value="11" style="shape=ext;double=1;rounded=0;whiteSpace=wrap;html=1;fontSize=18;fontColor=#000000;strokeColor=#666666;direction=west;fillColor=#f5f5f5;" vertex="1" parent="1">
                    <mxGeometry x="340" y="380" width="56" height="40" as="geometry"/>
                </mxCell>
                <mxCell id="121" value="8" style="shape=ext;double=1;rounded=0;whiteSpace=wrap;html=1;fontSize=18;fontColor=#000000;strokeColor=#666666;direction=west;fillColor=#f5f5f5;" vertex="1" parent="1">
                    <mxGeometry x="644" y="380" width="56" height="40" as="geometry"/>
                </mxCell>
                <mxCell id="122" value="12" style="shape=ext;double=1;rounded=0;whiteSpace=wrap;html=1;fontSize=18;fontColor=#000000;strokeColor=#666666;direction=west;fillColor=#f5f5f5;" vertex="1" parent="1">
                    <mxGeometry x="700" y="380" width="56" height="40" as="geometry"/>
                </mxCell>
                <mxCell id="123" value="22" style="shape=ext;double=1;rounded=0;whiteSpace=wrap;html=1;fontSize=18;fontColor=#000000;strokeColor=#666666;direction=west;fillColor=#f5f5f5;" vertex="1" parent="1">
                    <mxGeometry x="800" y="380" width="56" height="40" as="geometry"/>
                </mxCell>
                <mxCell id="124" value="22" style="shape=ext;double=1;rounded=0;whiteSpace=wrap;html=1;fontSize=18;fontColor=#000000;strokeColor=#666666;direction=west;fillColor=#f5f5f5;" vertex="1" parent="1">
                    <mxGeometry x="850" y="470" width="56" height="40" as="geometry"/>
                </mxCell>
                <mxCell id="125" value="12" style="shape=ext;double=1;rounded=0;whiteSpace=wrap;html=1;fontSize=18;fontColor=#000000;strokeColor=#666666;direction=west;fillColor=#f5f5f5;" vertex="1" parent="1">
                    <mxGeometry x="710" y="470" width="56" height="40" as="geometry"/>
                </mxCell>
                <mxCell id="126" value="8" style="shape=ext;double=1;rounded=0;whiteSpace=wrap;html=1;fontSize=18;fontColor=#000000;strokeColor=#666666;direction=west;fillColor=#f5f5f5;" vertex="1" parent="1">
                    <mxGeometry x="564" y="470" width="56" height="40" as="geometry"/>
                </mxCell>
                <mxCell id="142" value="11" style="shape=ext;double=1;rounded=0;whiteSpace=wrap;html=1;fontSize=18;fontColor=#000000;strokeColor=#666666;direction=west;fillColor=#f5f5f5;" vertex="1" parent="1">
                    <mxGeometry x="414" y="470" width="56" height="40" as="geometry"/>
                </mxCell>
                <mxCell id="143" value="21" style="shape=ext;double=1;rounded=0;whiteSpace=wrap;html=1;fontSize=18;fontColor=#000000;strokeColor=#666666;direction=west;fillColor=#f5f5f5;" vertex="1" parent="1">
                    <mxGeometry x="262" y="470" width="56" height="40" as="geometry"/>
                </mxCell>
                <mxCell id="144" value="16" style="shape=ext;double=1;rounded=0;whiteSpace=wrap;html=1;fontSize=18;fontColor=#000000;strokeColor=#666666;direction=west;fillColor=#f5f5f5;" vertex="1" parent="1">
                    <mxGeometry x="130" y="470" width="56" height="40" as="geometry"/>
                </mxCell>
                <mxCell id="148" value="16" style="shape=ext;double=1;rounded=0;whiteSpace=wrap;html=1;fontSize=18;fontColor=#000000;strokeColor=#666666;direction=west;fillColor=#f5f5f5;" vertex="1" parent="1">
                    <mxGeometry x="206" y="565" width="56" height="40" as="geometry"/>
                </mxCell>
                <mxCell id="149" value="21" style="shape=ext;double=1;rounded=0;whiteSpace=wrap;html=1;fontSize=18;fontColor=#000000;strokeColor=#666666;direction=west;fillColor=#f5f5f5;" vertex="1" parent="1">
                    <mxGeometry x="262" y="565" width="56" height="40" as="geometry"/>
                </mxCell>
                <mxCell id="150" value="11" style="shape=ext;double=1;rounded=0;whiteSpace=wrap;html=1;fontSize=18;fontColor=#000000;strokeColor=#666666;direction=west;fillColor=#f5f5f5;" vertex="1" parent="1">
                    <mxGeometry x="424" y="565" width="56" height="40" as="geometry"/>
                </mxCell>
                <mxCell id="151" value="22" style="shape=ext;double=1;rounded=0;whiteSpace=wrap;html=1;fontSize=18;fontColor=#000000;strokeColor=#666666;direction=west;fillColor=#f5f5f5;" vertex="1" parent="1">
                    <mxGeometry x="794" y="565" width="56" height="40" as="geometry"/>
                </mxCell>
                <mxCell id="152" value="8" style="shape=ext;double=1;rounded=0;whiteSpace=wrap;html=1;fontSize=18;fontColor=#000000;strokeColor=#666666;direction=west;fillColor=#f5f5f5;" vertex="1" parent="1">
                    <mxGeometry x="598" y="565" width="56" height="40" as="geometry"/>
                </mxCell>
                <mxCell id="153" value="12" style="shape=ext;double=1;rounded=0;whiteSpace=wrap;html=1;fontSize=18;fontColor=#000000;strokeColor=#666666;direction=west;fillColor=#f5f5f5;" vertex="1" parent="1">
                    <mxGeometry x="654" y="565" width="56" height="40" as="geometry"/>
                </mxCell>
                <mxCell id="154" value="" style="shape=table;html=1;whiteSpace=wrap;startSize=0;container=1;collapsible=0;childLayout=tableLayout;fontSize=18;fontColor=#333333;strokeColor=#666666;fillColor=#f5f5f5;" vertex="1" parent="1">
                    <mxGeometry x="278" y="670" width="180" height="40" as="geometry"/>
                </mxCell>
                <mxCell id="155" value="" style="shape=partialRectangle;html=1;whiteSpace=wrap;collapsible=0;dropTarget=0;pointerEvents=0;fillColor=none;top=0;left=0;bottom=0;right=0;points=[[0,0.5],[1,0.5]];portConstraint=eastwest;fontSize=18;fontColor=#FFFFFF;strokeColor=#2D7600;" vertex="1" parent="154">
                    <mxGeometry width="180" height="40" as="geometry"/>
                </mxCell>
                <mxCell id="156" value="&lt;font color=&quot;#000000&quot;&gt;11&lt;/font&gt;" style="shape=partialRectangle;html=1;whiteSpace=wrap;connectable=0;fillColor=none;top=0;left=0;bottom=0;right=0;overflow=hidden;pointerEvents=1;fontSize=18;fontColor=#FFFFFF;strokeColor=#2D7600;" vertex="1" parent="155">
                    <mxGeometry width="60" height="40" as="geometry">
                        <mxRectangle width="60" height="40" as="alternateBounds"/>
                    </mxGeometry>
                </mxCell>
                <mxCell id="157" value="&lt;font color=&quot;#000000&quot;&gt;16&lt;/font&gt;" style="shape=partialRectangle;html=1;whiteSpace=wrap;connectable=0;fillColor=none;top=0;left=0;bottom=0;right=0;overflow=hidden;pointerEvents=1;fontSize=18;fontColor=#FFFFFF;strokeColor=#2D7600;" vertex="1" parent="155">
                    <mxGeometry x="60" width="60" height="40" as="geometry">
                        <mxRectangle width="60" height="40" as="alternateBounds"/>
                    </mxGeometry>
                </mxCell>
                <mxCell id="158" value="&lt;font color=&quot;#000000&quot;&gt;21&lt;/font&gt;" style="shape=partialRectangle;html=1;whiteSpace=wrap;connectable=0;fillColor=none;top=0;left=0;bottom=0;right=0;overflow=hidden;pointerEvents=1;fontSize=18;fontColor=#FFFFFF;strokeColor=#2D7600;" vertex="1" parent="155">
                    <mxGeometry x="120" width="60" height="40" as="geometry">
                        <mxRectangle width="60" height="40" as="alternateBounds"/>
                    </mxGeometry>
                </mxCell>
                <mxCell id="159" value="" style="shape=table;html=1;whiteSpace=wrap;startSize=0;container=1;collapsible=0;childLayout=tableLayout;fontSize=18;fontColor=#333333;strokeColor=#666666;fillColor=#f5f5f5;" vertex="1" parent="1">
                    <mxGeometry x="600" y="670" width="180" height="40" as="geometry"/>
                </mxCell>
                <mxCell id="160" value="" style="shape=partialRectangle;html=1;whiteSpace=wrap;collapsible=0;dropTarget=0;pointerEvents=0;fillColor=none;top=0;left=0;bottom=0;right=0;points=[[0,0.5],[1,0.5]];portConstraint=eastwest;fontSize=18;fontColor=#FFFFFF;strokeColor=#2D7600;" vertex="1" parent="159">
                    <mxGeometry width="180" height="40" as="geometry"/>
                </mxCell>
                <mxCell id="161" value="&lt;font color=&quot;#000000&quot;&gt;8&lt;/font&gt;" style="shape=partialRectangle;html=1;whiteSpace=wrap;connectable=0;fillColor=none;top=0;left=0;bottom=0;right=0;overflow=hidden;pointerEvents=1;fontSize=18;fontColor=#FFFFFF;strokeColor=#2D7600;" vertex="1" parent="160">
                    <mxGeometry width="60" height="40" as="geometry">
                        <mxRectangle width="60" height="40" as="alternateBounds"/>
                    </mxGeometry>
                </mxCell>
                <mxCell id="162" value="&lt;font color=&quot;#000000&quot;&gt;12&lt;/font&gt;" style="shape=partialRectangle;html=1;whiteSpace=wrap;connectable=0;fillColor=none;top=0;left=0;bottom=0;right=0;overflow=hidden;pointerEvents=1;fontSize=18;fontColor=#FFFFFF;strokeColor=#2D7600;" vertex="1" parent="160">
                    <mxGeometry x="60" width="60" height="40" as="geometry">
                        <mxRectangle width="60" height="40" as="alternateBounds"/>
                    </mxGeometry>
                </mxCell>
                <mxCell id="163" value="&lt;font color=&quot;#000000&quot;&gt;22&lt;/font&gt;" style="shape=partialRectangle;html=1;whiteSpace=wrap;connectable=0;fillColor=none;top=0;left=0;bottom=0;right=0;overflow=hidden;pointerEvents=1;fontSize=18;fontColor=#FFFFFF;strokeColor=#2D7600;" vertex="1" parent="160">
                    <mxGeometry x="120" width="60" height="40" as="geometry">
                        <mxRectangle width="60" height="40" as="alternateBounds"/>
                    </mxGeometry>
                </mxCell>
                <mxCell id="169" value="" style="shape=table;html=1;whiteSpace=wrap;startSize=0;container=1;collapsible=0;childLayout=tableLayout;fontSize=18;fontColor=#333333;strokeColor=#666666;fillColor=#f5f5f5;" vertex="1" parent="1">
                    <mxGeometry x="520" y="780" width="180" height="40" as="geometry"/>
                </mxCell>
                <mxCell id="170" value="" style="shape=partialRectangle;html=1;whiteSpace=wrap;collapsible=0;dropTarget=0;pointerEvents=0;fillColor=none;top=0;left=0;bottom=0;right=0;points=[[0,0.5],[1,0.5]];portConstraint=eastwest;fontSize=18;fontColor=#FFFFFF;strokeColor=#2D7600;" vertex="1" parent="169">
                    <mxGeometry width="180" height="40" as="geometry"/>
                </mxCell>
                <mxCell id="171" value="&lt;font color=&quot;#000000&quot;&gt;16&lt;/font&gt;" style="shape=partialRectangle;html=1;whiteSpace=wrap;connectable=0;fillColor=none;top=0;left=0;bottom=0;right=0;overflow=hidden;pointerEvents=1;fontSize=18;fontColor=#FFFFFF;strokeColor=#2D7600;" vertex="1" parent="170">
                    <mxGeometry width="60" height="40" as="geometry">
                        <mxRectangle width="60" height="40" as="alternateBounds"/>
                    </mxGeometry>
                </mxCell>
                <mxCell id="172" value="&lt;font color=&quot;#000000&quot;&gt;21&lt;/font&gt;" style="shape=partialRectangle;html=1;whiteSpace=wrap;connectable=0;fillColor=none;top=0;left=0;bottom=0;right=0;overflow=hidden;pointerEvents=1;fontSize=18;fontColor=#FFFFFF;strokeColor=#2D7600;" vertex="1" parent="170">
                    <mxGeometry x="60" width="60" height="40" as="geometry">
                        <mxRectangle width="60" height="40" as="alternateBounds"/>
                    </mxGeometry>
                </mxCell>
                <mxCell id="173" value="&lt;font color=&quot;#000000&quot;&gt;22&lt;/font&gt;" style="shape=partialRectangle;html=1;whiteSpace=wrap;connectable=0;fillColor=none;top=0;left=0;bottom=0;right=0;overflow=hidden;pointerEvents=1;fontSize=18;fontColor=#FFFFFF;strokeColor=#2D7600;" vertex="1" parent="170">
                    <mxGeometry x="120" width="60" height="40" as="geometry">
                        <mxRectangle width="60" height="40" as="alternateBounds"/>
                    </mxGeometry>
                </mxCell>
                <mxCell id="174" value="" style="shape=table;html=1;whiteSpace=wrap;startSize=0;container=1;collapsible=0;childLayout=tableLayout;fontSize=18;fontColor=#333333;strokeColor=#666666;fillColor=#f5f5f5;" vertex="1" parent="1">
                    <mxGeometry x="340" y="780" width="180" height="40" as="geometry"/>
                </mxCell>
                <mxCell id="175" value="" style="shape=partialRectangle;html=1;whiteSpace=wrap;collapsible=0;dropTarget=0;pointerEvents=0;fillColor=none;top=0;left=0;bottom=0;right=0;points=[[0,0.5],[1,0.5]];portConstraint=eastwest;fontSize=18;fontColor=#FFFFFF;strokeColor=#2D7600;" vertex="1" parent="174">
                    <mxGeometry width="180" height="40" as="geometry"/>
                </mxCell>
                <mxCell id="176" value="&lt;font color=&quot;#000000&quot;&gt;8&lt;/font&gt;" style="shape=partialRectangle;html=1;whiteSpace=wrap;connectable=0;fillColor=none;top=0;left=0;bottom=0;right=0;overflow=hidden;pointerEvents=1;fontSize=18;fontColor=#FFFFFF;strokeColor=#2D7600;" vertex="1" parent="175">
                    <mxGeometry width="60" height="40" as="geometry">
                        <mxRectangle width="60" height="40" as="alternateBounds"/>
                    </mxGeometry>
                </mxCell>
                <mxCell id="177" value="&lt;font color=&quot;#000000&quot;&gt;11&lt;/font&gt;" style="shape=partialRectangle;html=1;whiteSpace=wrap;connectable=0;fillColor=none;top=0;left=0;bottom=0;right=0;overflow=hidden;pointerEvents=1;fontSize=18;fontColor=#FFFFFF;strokeColor=#2D7600;" vertex="1" parent="175">
                    <mxGeometry x="60" width="60" height="40" as="geometry">
                        <mxRectangle width="60" height="40" as="alternateBounds"/>
                    </mxGeometry>
                </mxCell>
                <mxCell id="178" value="&lt;font color=&quot;#000000&quot;&gt;12&lt;/font&gt;" style="shape=partialRectangle;html=1;whiteSpace=wrap;connectable=0;fillColor=none;top=0;left=0;bottom=0;right=0;overflow=hidden;pointerEvents=1;fontSize=18;fontColor=#FFFFFF;strokeColor=#2D7600;" vertex="1" parent="175">
                    <mxGeometry x="120" width="60" height="40" as="geometry">
                        <mxRectangle width="60" height="40" as="alternateBounds"/>
                    </mxGeometry>
                </mxCell>
                <mxCell id="180" value="" style="shape=singleArrow;direction=north;whiteSpace=wrap;html=1;fontSize=18;fontColor=#FFFFFF;strokeColor=#2D7600;rotation=-210;" vertex="1" parent="1">
                    <mxGeometry x="662.73" y="238.66" width="26" height="40" as="geometry"/>
                </mxCell>
                <mxCell id="181" value="" style="shape=singleArrow;direction=north;whiteSpace=wrap;html=1;fontSize=18;fontColor=#FFFFFF;strokeColor=#2D7600;rotation=-140;" vertex="1" parent="1">
                    <mxGeometry x="370" y="239.99999999999997" width="26" height="40" as="geometry"/>
                </mxCell>
                <mxCell id="182" value="" style="shape=singleArrow;direction=north;whiteSpace=wrap;html=1;fontSize=18;fontColor=#FFFFFF;strokeColor=#2D7600;rotation=-140;" vertex="1" parent="1">
                    <mxGeometry x="260" y="340" width="26" height="40" as="geometry"/>
                </mxCell>
                <mxCell id="183" value="" style="shape=singleArrow;direction=north;whiteSpace=wrap;html=1;fontSize=18;fontColor=#FFFFFF;strokeColor=#2D7600;rotation=-155;" vertex="1" parent="1">
                    <mxGeometry x="186" y="425" width="26" height="40" as="geometry"/>
                </mxCell>
                <mxCell id="184" value="" style="shape=singleArrow;direction=north;whiteSpace=wrap;html=1;fontSize=18;fontColor=#FFFFFF;strokeColor=#2D7600;rotation=-165;" vertex="1" parent="1">
                    <mxGeometry x="264" y="520" width="26" height="40" as="geometry"/>
                </mxCell>
                <mxCell id="185" value="" style="shape=singleArrow;direction=north;whiteSpace=wrap;html=1;fontSize=18;fontColor=#FFFFFF;strokeColor=#2D7600;rotation=-210;" vertex="1" parent="1">
                    <mxGeometry x="330" y="335" width="26" height="40" as="geometry"/>
                </mxCell>
                <mxCell id="186" value="" style="shape=singleArrow;direction=north;whiteSpace=wrap;html=1;fontSize=18;fontColor=#FFFFFF;strokeColor=#2D7600;rotation=-210;" vertex="1" parent="1">
                    <mxGeometry x="396" y="424" width="26" height="40" as="geometry"/>
                </mxCell>
                <mxCell id="188" value="" style="shape=singleArrow;direction=north;whiteSpace=wrap;html=1;fontSize=18;fontColor=#FFFFFF;strokeColor=#2D7600;rotation=-195;" vertex="1" parent="1">
                    <mxGeometry x="432" y="520" width="26" height="40" as="geometry"/>
                </mxCell>
                <mxCell id="189" value="" style="shape=singleArrow;direction=north;whiteSpace=wrap;html=1;fontSize=18;fontColor=#FFFFFF;strokeColor=#2D7600;rotation=-195;" vertex="1" parent="1">
                    <mxGeometry x="600" y="520" width="26" height="40" as="geometry"/>
                </mxCell>
                <mxCell id="190" value="" style="shape=singleArrow;direction=north;whiteSpace=wrap;html=1;fontSize=18;fontColor=#FFFFFF;strokeColor=#2D7600;rotation=-195;" vertex="1" parent="1">
                    <mxGeometry x="284" y="620" width="26" height="40" as="geometry"/>
                </mxCell>
                <mxCell id="191" value="" style="shape=singleArrow;direction=north;whiteSpace=wrap;html=1;fontSize=18;fontColor=#FFFFFF;strokeColor=#2D7600;rotation=-195;" vertex="1" parent="1">
                    <mxGeometry x="406" y="720" width="26" height="40" as="geometry"/>
                </mxCell>
                <mxCell id="192" value="" style="shape=singleArrow;direction=north;whiteSpace=wrap;html=1;fontSize=18;fontColor=#FFFFFF;strokeColor=#2D7600;rotation=-155;" vertex="1" parent="1">
                    <mxGeometry x="697" y="520" width="26" height="40" as="geometry"/>
                </mxCell>
                <mxCell id="193" value="" style="shape=singleArrow;direction=north;whiteSpace=wrap;html=1;fontSize=18;fontColor=#FFFFFF;strokeColor=#2D7600;rotation=-155;" vertex="1" parent="1">
                    <mxGeometry x="830" y="520" width="26" height="40" as="geometry"/>
                </mxCell>
                <mxCell id="194" value="" style="shape=singleArrow;direction=north;whiteSpace=wrap;html=1;fontSize=18;fontColor=#FFFFFF;strokeColor=#2D7600;rotation=-150;" vertex="1" parent="1">
                    <mxGeometry x="766" y="620" width="26" height="40" as="geometry"/>
                </mxCell>
                <mxCell id="195" value="" style="shape=singleArrow;direction=north;whiteSpace=wrap;html=1;fontSize=18;fontColor=#FFFFFF;strokeColor=#2D7600;rotation=-195;" vertex="1" parent="1">
                    <mxGeometry x="662.73" y="620" width="26" height="40" as="geometry"/>
                </mxCell>
                <mxCell id="196" value="" style="shape=singleArrow;direction=north;whiteSpace=wrap;html=1;fontSize=18;fontColor=#FFFFFF;strokeColor=#2D7600;rotation=-150;" vertex="1" parent="1">
                    <mxGeometry x="644" y="720" width="26" height="40" as="geometry"/>
                </mxCell>
                <mxCell id="197" value="" style="shape=singleArrow;direction=north;whiteSpace=wrap;html=1;fontSize=18;fontColor=#FFFFFF;strokeColor=#2D7600;rotation=-210;" vertex="1" parent="1">
                    <mxGeometry x="180" y="520" width="26" height="40" as="geometry"/>
                </mxCell>
                <mxCell id="198" value="" style="shape=singleArrow;direction=north;whiteSpace=wrap;html=1;fontSize=18;fontColor=#FFFFFF;strokeColor=#2D7600;rotation=-155;" vertex="1" parent="1">
                    <mxGeometry x="424" y="620" width="26" height="40" as="geometry"/>
                </mxCell>
                <mxCell id="199" value="1- Yukarıdaki dizinin Merge Sort türüne göre aşamalarını yazınız" style="rounded=0;whiteSpace=wrap;html=1;fontSize=18;fontColor=#ffffff;strokeColor=#2D7600;fillColor=#60a917;" vertex="1" parent="1">
                    <mxGeometry x="215" y="-80" width="580" height="130" as="geometry"/>
                </mxCell>
            </root>
        </mxGraphModel>
    </diagram>
</mxfile>